<?xml version="1.0" encoding="utf-8"?>
<!-- Generator: Adobe Illustrator 16.0.0, SVG Export Plug-In . SVG Version: 6.00 Build 0)  -->
<!DOCTYPE svg PUBLIC "-//W3C//DTD SVG 1.1//EN" "http://www.w3.org/Graphics/SVG/1.1/DTD/svg11.dtd">
<svg version="1.1" id="Layer_1" xmlns="http://www.w3.org/2000/svg" xmlns:xlink="http://www.w3.org/1999/xlink" x="0px" y="0px"
	 width="1438px" height="978px" viewBox="0 0 1438 978" enable-background="new 0 0 1438 978" xml:space="preserve">
<g opacity="0.2">
	
		<linearGradient id="SVGID_1_" gradientUnits="userSpaceOnUse" x1="470.8291" y1="1003.25" x2="24.8689" y2="649.9797" gradientTransform="matrix(1 0 0 -1 0 979)">
		<stop  offset="0" style="stop-color:#00517A"/>
		<stop  offset="1" style="stop-color:#00233F"/>
	</linearGradient>
	<path fill="url(#SVGID_1_)" d="M116.213,830.484c-73.639-91.765-65.734-239.521,17.269-322.752
		c57.018-57.178,137.711-81.377,209.055-118.752C465.983,324.303,568.2,209.906,597.023,72.593
		c28.821-137.313-27.005-294.552-147.484-364.694c-69.281-40.335-152.595-50.003-232.327-43.578
		c-90.934,7.326-180.848,34.931-257.595,84.688C-162.217-172.006-244.042-42.545-299.152,92.584
		c-59.55,146.013-92.216,303.139-95.839,460.992c-2.291,99.861,8.524,204.695,63.176,287.979
		c64.699,98.599,190.028,152.608,305.352,131.591c30.525-5.562,60.817-16.26,84.806-36.104
		c23.989-19.843,58.665-75.105,57.941-106.396"/>
	
		<linearGradient id="SVGID_2_" gradientUnits="userSpaceOnUse" x1="1141.5703" y1="98.9619" x2="1436.8606" y2="391.5963" gradientTransform="matrix(1 0 0 -1 0 979)">
		<stop  offset="0" style="stop-color:#00517A"/>
		<stop  offset="1" style="stop-color:#00233F"/>
	</linearGradient>
	<path fill="url(#SVGID_2_)" fill-opacity="0.7" d="M1198.8,928.468c-104.64-32.596-179.359-139.212-183.79-249.628
		c-4.439-110.419,56.88-218.852,148.561-279.295c53.35-35.173,115.17-55.134,170.029-87.863
		c37.61-22.439,71.59-50.672,109.34-72.885c37.74-22.212,81.021-38.499,124.45-33.58c43.62,4.942,82.66,30.931,112.75,63.191
		c87.561,93.875,105.58,237.114,78.811,363.169c-15.39,72.424-44.811,143.313-94.69,197.646
		c-51.8,56.417-123.439,92.131-198.09,107.657c-74.64,15.53-192.52,5.657-267.42-8.556"/>
</g>
</svg>
