<svg width="1438" height="1018" viewBox="0 0 1438 1018" fill="none" xmlns="http://www.w3.org/2000/svg">
<g opacity="0.2">
<mask id="mask0_5_619" style="mask-type:luminance" maskUnits="userSpaceOnUse" x="-2" y="0" width="1440" height="1018">
<path d="M1438 0H-2V1017.16H1438V0Z" fill="white"/>
</mask>
<g mask="url(#mask0_5_619)">
<path d="M1438 0H-2V1017.16H1438V0Z" fill="#1C1C1C"/>
<path d="M116.213 830.484C42.5741 738.72 50.4791 590.963 133.482 507.732C190.5 450.555 271.193 426.355 342.537 388.98C465.983 324.303 568.2 209.906 597.023 72.5932C625.845 -64.7196 570.019 -221.959 449.539 -292.101C380.258 -332.436 296.944 -342.104 217.212 -335.679C126.278 -328.353 36.3641 -300.748 -40.3834 -250.991C-162.217 -172.006 -244.042 -42.5449 -299.152 92.5846C-358.702 238.597 -391.368 395.723 -394.991 553.576C-397.282 653.438 -386.467 758.272 -331.815 841.556C-267.116 940.154 -141.787 994.164 -26.4634 973.147C4.06158 967.585 34.3541 956.887 58.3428 937.043C82.3316 917.2 117.008 861.937 116.284 830.646" fill="url(#paint0_linear_5_619)"/>
<path d="M1198.8 928.468C1094.16 895.872 1019.44 789.256 1015.01 678.84C1010.57 568.421 1071.89 459.988 1163.57 399.545C1216.92 364.372 1278.74 344.411 1333.6 311.682C1371.21 289.243 1405.19 261.01 1442.94 238.797C1480.68 216.585 1523.96 200.298 1567.39 205.217C1611.01 210.159 1650.05 236.148 1680.14 268.408C1767.7 362.283 1785.72 505.522 1758.95 631.577C1743.56 704.001 1714.14 774.891 1664.26 829.223C1612.46 885.64 1540.82 921.354 1466.17 936.88C1391.53 952.41 1273.65 942.537 1198.75 928.324" fill="url(#paint1_linear_5_619)" fill-opacity="0.7"/>
<path d="M1479.84 910.138C1456.01 918.981 1431.18 922.849 1406.04 921.638C1381.75 920.469 1358.19 914.63 1336.02 904.292C1313.85 893.95 1294.18 879.627 1277.56 861.717C1260.35 843.175 1247.19 821.579 1238.42 797.539C1229.66 773.495 1225.83 748.437 1227.03 723.064C1228.19 698.555 1233.97 674.787 1244.22 652.412C1254.47 630.04 1268.66 610.193 1286.41 593.422C1304.78 576.057 1326.18 562.771 1350.01 553.928C1373.84 545.084 1398.67 541.217 1423.81 542.428C1448.1 543.597 1471.65 549.436 1493.83 559.774C1516 570.116 1535.67 584.439 1552.29 602.349C1569.5 620.891 1582.66 642.486 1591.43 666.526C1600.19 690.571 1604.02 715.629 1602.82 741.001C1601.66 765.51 1595.88 789.278 1585.63 811.653C1575.38 834.025 1561.19 853.872 1543.44 870.644C1525.07 888.009 1503.66 901.295 1479.84 910.138ZM1351.56 558.185C1328.3 566.816 1307.42 579.788 1289.48 596.733C1272.15 613.103 1258.3 632.474 1248.3 654.315C1238.29 676.153 1232.65 699.357 1231.52 723.276C1230.35 748.043 1234.09 772.5 1242.64 795.968C1251.2 819.437 1264.05 840.515 1280.84 858.614C1297.07 876.096 1316.26 890.075 1337.91 900.171C1359.55 910.267 1382.54 915.962 1406.25 917.104C1430.79 918.285 1455.03 914.509 1478.28 905.877C1501.54 897.246 1522.43 884.278 1540.37 867.329C1557.69 850.959 1571.54 831.588 1581.55 809.746C1591.55 787.908 1597.2 764.704 1598.33 740.785C1599.5 716.018 1595.76 691.562 1587.2 668.093C1578.65 644.624 1565.8 623.547 1549 605.448C1532.78 587.965 1513.58 573.987 1491.94 563.891C1470.3 553.795 1447.3 548.1 1423.6 546.957C1399.05 545.777 1374.82 549.553 1351.56 558.185Z" fill="url(#paint2_linear_5_619)"/>
<path d="M258.058 1205.98C190.401 1205.98 124.765 1192.61 62.9721 1166.24C33.2759 1153.56 4.62967 1137.87 -22.1641 1119.6C-48.7028 1101.51 -73.6591 1080.73 -96.3353 1057.85C-119.015 1034.97 -139.603 1009.78 -157.535 983.007C-175.637 955.97 -191.184 927.067 -203.747 897.097C-229.88 834.747 -243.133 768.514 -243.133 700.238C-243.133 631.962 -229.88 565.733 -203.747 503.379C-191.184 473.413 -175.64 444.506 -157.535 417.469C-139.607 390.689 -119.015 365.506 -96.3353 342.624C-73.6553 319.741 -48.6991 298.963 -22.1641 280.868C4.62967 262.602 33.2722 246.913 62.9721 234.236C124.761 207.865 190.397 194.492 258.058 194.492C325.72 194.492 391.352 207.865 453.145 234.236C482.841 246.913 511.487 262.598 538.281 280.868C564.82 298.959 589.776 319.738 612.452 342.624C635.128 365.51 655.723 390.693 673.648 417.469C691.75 444.506 707.297 473.409 719.86 503.379C745.993 565.729 759.246 631.962 759.246 700.238C759.246 768.514 745.993 834.743 719.86 897.097C707.297 927.063 691.75 955.97 673.648 983.007C655.72 1009.79 635.128 1034.97 612.452 1057.85C589.772 1080.74 564.816 1101.51 538.281 1119.6C511.487 1137.87 482.845 1153.56 453.145 1166.24C391.356 1192.61 325.72 1205.98 258.058 1205.98ZM258.058 198.776C190.971 198.776 125.89 212.035 64.6259 238.183C35.1809 250.75 6.77843 266.306 -19.7866 284.417C-46.1003 302.357 -70.8466 322.958 -93.3353 345.651C-115.824 368.344 -136.239 393.315 -154.018 419.868C-171.965 446.675 -187.382 475.335 -199.835 505.048C-225.748 566.868 -238.888 632.541 -238.888 700.238C-238.888 767.935 -225.748 833.608 -199.835 895.428C-187.382 925.141 -171.965 953.802 -154.018 980.608C-136.239 1007.16 -115.824 1032.13 -93.3353 1054.83C-70.8466 1077.52 -46.1003 1098.12 -19.7866 1116.06C6.77843 1134.17 35.1809 1149.73 64.6259 1162.29C125.89 1188.44 190.971 1201.7 258.058 1201.7C325.146 1201.7 390.227 1188.44 451.491 1162.29C480.936 1149.73 509.338 1134.17 535.903 1116.06C562.217 1098.12 586.963 1077.52 609.452 1054.83C631.941 1032.13 652.356 1007.16 670.135 980.608C688.082 953.802 703.498 925.141 715.952 895.428C741.865 833.608 755.005 767.935 755.005 700.238C755.005 632.541 741.865 566.868 715.952 505.048C703.498 475.335 688.082 446.675 670.135 419.868C652.356 393.315 631.941 368.344 609.452 345.651C586.963 322.958 562.217 302.357 535.903 284.417C509.338 266.306 480.936 250.75 451.491 238.183C390.227 212.035 325.146 198.776 258.058 198.776Z" fill="url(#paint3_linear_5_619)"/>
<path d="M960.43 270.936C914.136 270.936 869.222 261.786 826.941 243.74C786.103 226.31 749.428 201.358 717.936 169.579C686.443 137.801 661.716 100.792 644.443 59.5838C626.56 16.9183 617.492 -28.3998 617.492 -75.118C617.492 -121.836 626.56 -167.154 644.443 -209.82C661.716 -251.028 686.443 -288.037 717.936 -319.815C749.428 -351.594 786.103 -376.546 826.941 -393.976C869.222 -412.022 914.132 -421.172 960.43 -421.172C1006.73 -421.172 1051.64 -412.022 1093.92 -393.976C1134.76 -376.546 1171.43 -351.594 1202.92 -319.815C1234.42 -288.037 1259.14 -251.028 1276.42 -209.82C1294.3 -167.154 1303.37 -121.836 1303.37 -75.118C1303.37 -28.3998 1294.3 16.9183 1276.42 59.5838C1259.14 100.792 1234.42 137.801 1202.92 169.579C1171.43 201.358 1134.76 226.31 1093.92 243.74C1051.64 261.786 1006.73 270.936 960.43 270.936ZM960.43 -416.631C914.74 -416.631 870.418 -407.602 828.696 -389.794C788.395 -372.592 752.2 -347.969 721.12 -316.603C690.036 -285.236 665.635 -248.716 648.587 -208.049C630.94 -165.947 621.992 -121.223 621.992 -75.118C621.992 -29.0128 630.94 15.7112 648.587 57.8129C665.635 98.4803 690.036 135.004 721.12 166.367C752.203 197.733 788.395 222.356 828.696 239.558C870.418 257.366 914.74 266.395 960.43 266.395C1006.12 266.395 1050.44 257.366 1092.16 239.558C1132.46 222.356 1168.66 197.733 1199.74 166.367C1230.82 135 1255.22 98.4803 1272.27 57.8129C1289.92 15.7112 1298.87 -29.0128 1298.87 -75.118C1298.87 -121.223 1289.92 -165.947 1272.27 -208.049C1255.22 -248.716 1230.82 -285.24 1199.74 -316.603C1168.66 -347.969 1132.46 -372.592 1092.16 -389.794C1050.44 -407.602 1006.12 -416.631 960.43 -416.631Z" fill="url(#paint4_linear_5_619)"/>
<path d="M179.875 274.72C157.236 274.72 135.955 265.824 119.946 249.673C103.938 233.519 95.125 212.044 95.125 189.2C95.125 166.355 103.941 144.881 119.946 128.727C135.955 112.572 157.236 103.68 179.875 103.68C202.514 103.68 223.795 112.576 239.804 128.727C255.813 144.881 264.625 166.355 264.625 189.2C264.625 212.044 255.809 233.519 239.804 249.673C223.795 265.828 202.514 274.72 179.875 274.72ZM179.875 105.95C157.84 105.95 137.121 114.608 121.54 130.335C105.959 146.058 97.375 166.965 97.375 189.2C97.375 211.435 105.955 232.342 121.54 248.065C137.121 263.788 157.84 272.45 179.875 272.45C201.91 272.45 222.629 263.792 238.21 248.065C253.791 232.342 262.375 211.435 262.375 189.2C262.375 166.965 253.795 146.058 238.21 130.335C222.629 114.612 201.91 105.95 179.875 105.95Z" fill="url(#paint5_linear_5_619)"/>
<path d="M1024.92 732.218C988.221 732.218 958.359 702.085 958.359 665.05C958.359 628.015 988.221 597.883 1024.92 597.883C1061.62 597.883 1091.48 628.015 1091.48 665.05C1091.48 702.085 1061.62 732.218 1024.92 732.218ZM1024.92 600.153C989.458 600.153 960.609 629.264 960.609 665.05C960.609 700.836 989.458 729.947 1024.92 729.947C1060.39 729.947 1089.23 700.836 1089.23 665.05C1089.23 629.264 1060.39 600.153 1024.92 600.153Z" fill="url(#paint6_linear_5_619)"/>
<g opacity="0.7">
<path d="M1038.16 423.034L1027.32 412.094C1026.65 411.421 1026.65 410.327 1027.32 409.654C1027.99 408.98 1029.07 408.98 1029.74 409.654L1040.58 420.593C1041.25 421.267 1041.25 422.36 1040.58 423.034C1039.91 423.708 1038.83 423.708 1038.16 423.034Z" fill="white"/>
<path d="M1027.32 423.034C1026.65 422.36 1026.65 421.267 1027.32 420.593L1038.16 409.654C1038.83 408.98 1039.91 408.98 1040.58 409.654C1041.25 410.327 1041.25 411.421 1040.58 412.094L1029.74 423.034C1029.07 423.708 1027.99 423.708 1027.32 423.034Z" fill="white"/>
</g>
<path d="M106.578 737.044L147.314 663.618H149.381L108.644 737.044H106.578Z" fill="url(#paint7_linear_5_619)"/>
<path d="M85.2031 737.044L125.939 663.618H128.006L87.2694 737.044H85.2031Z" fill="url(#paint8_linear_5_619)"/>
<path d="M63.8281 737.044L104.564 663.618H106.631L65.8944 737.044H63.8281Z" fill="url(#paint9_linear_5_619)"/>
<path d="M42.4531 737.044L83.1894 663.618H85.2556L44.5194 737.044H42.4531Z" fill="url(#paint10_linear_5_619)"/>
<path d="M21.0781 737.044L61.8144 663.618H63.8806L23.1444 737.044H21.0781Z" fill="url(#paint11_linear_5_619)"/>
<path d="M-0.296875 737.044L40.4394 663.618H42.5056L1.76938 737.044H-0.296875Z" fill="url(#paint12_linear_5_619)"/>
<path d="M-21.6719 737.044L19.0644 663.618H21.1306L-19.6056 737.044H-21.6719Z" fill="url(#paint13_linear_5_619)"/>
<g opacity="0.7">
<path d="M369.839 27.5709L358.998 38.5107C358.33 39.1842 357.246 39.1842 356.579 38.5107C355.911 37.8371 355.911 36.7435 356.579 36.07L367.42 25.1302C368.088 24.4566 369.171 24.4566 369.839 25.1302C370.506 25.8037 370.506 26.8974 369.839 27.5709Z" fill="white"/>
<path d="M369.839 38.5107C369.171 39.1842 368.088 39.1842 367.42 38.5107L356.579 27.5709C355.911 26.8974 355.911 25.8037 356.579 25.1302C357.246 24.4566 358.33 24.4566 358.998 25.1302L369.839 36.07C370.506 36.7435 370.506 37.8371 369.839 38.5107Z" fill="white"/>
</g>
<g opacity="0.7">
<path d="M647.358 666.36H635.095C634.338 666.36 633.727 665.742 633.727 664.977C633.727 664.211 634.338 663.594 635.095 663.594H647.358C648.115 663.594 648.727 664.211 648.727 664.977C648.727 665.742 648.115 666.36 647.358 666.36Z" fill="white"/>
<path d="M641.228 672.543C640.471 672.543 639.859 671.926 639.859 671.161V658.787C639.859 658.023 640.471 657.406 641.228 657.406C641.986 657.406 642.597 658.023 642.597 658.787V671.161C642.597 671.926 641.986 672.543 641.228 672.543Z" fill="white"/>
</g>
<g opacity="0.7">
<path d="M758.95 271.797H751.285C750.812 271.797 750.43 271.411 750.43 270.934C750.43 270.457 750.812 270.07 751.285 270.07H758.95C759.422 270.07 759.805 270.457 759.805 270.934C759.805 271.411 759.422 271.797 758.95 271.797Z" fill="white"/>
<path d="M755.113 275.663C754.64 275.663 754.258 275.277 754.258 274.801V267.066C754.258 266.589 754.64 266.203 755.113 266.203C755.585 266.203 755.968 266.589 755.968 267.066V274.801C755.968 275.277 755.585 275.663 755.113 275.663Z" fill="white"/>
</g>
<g opacity="0.7">
<path d="M135.139 514.861L128.637 508.299C128.236 507.895 128.236 507.24 128.637 506.835C129.038 506.43 129.687 506.43 130.088 506.835L136.591 513.397C136.992 513.801 136.992 514.456 136.591 514.861C136.189 515.266 135.541 515.266 135.139 514.861Z" fill="white"/>
<path d="M128.637 514.861C128.236 514.456 128.236 513.801 128.637 513.397L135.139 506.835C135.541 506.43 136.189 506.43 136.591 506.835C136.992 507.24 136.992 507.895 136.591 508.299L130.088 514.861C129.687 515.266 129.038 515.266 128.637 514.861Z" fill="white"/>
</g>
<g opacity="0.7">
<path d="M1398.9 62.9071H1393.38C1393.04 62.9071 1392.77 62.6304 1392.77 62.2856C1392.77 61.9407 1393.04 61.6641 1393.38 61.6641H1398.9C1399.24 61.6641 1399.52 61.9407 1399.52 62.2856C1399.52 62.6304 1399.24 62.9071 1398.9 62.9071Z" fill="white"/>
<path d="M1396.14 65.6873C1395.8 65.6873 1395.52 65.411 1395.52 65.0666V59.4957C1395.52 59.1513 1395.8 58.875 1396.14 58.875C1396.48 58.875 1396.75 59.1513 1396.75 59.4957V65.0666C1396.75 65.411 1396.48 65.6873 1396.14 65.6873Z" fill="white"/>
</g>
<path opacity="0.7" d="M884.867 598.827C887.456 598.827 889.555 596.71 889.555 594.097C889.555 591.485 887.456 589.367 884.867 589.367C882.278 589.367 880.18 591.485 880.18 594.097C880.18 596.71 882.278 598.827 884.867 598.827Z" fill="#DF2171"/>
<path opacity="0.7" d="M1382.3 445.382C1384.89 445.382 1386.99 443.264 1386.99 440.652C1386.99 438.04 1384.89 435.922 1382.3 435.922C1379.72 435.922 1377.62 438.04 1377.62 440.652C1377.62 443.264 1379.72 445.382 1382.3 445.382Z" fill="#DF2171"/>
<path opacity="0.7" d="M1164.05 703.459C1165.61 703.459 1166.87 702.188 1166.87 700.62C1166.87 699.052 1165.61 697.781 1164.05 697.781C1162.5 697.781 1161.24 699.052 1161.24 700.62C1161.24 702.188 1162.5 703.459 1164.05 703.459Z" fill="white"/>
<path opacity="0.7" d="M342.43 763.813C345.536 763.813 348.055 761.272 348.055 758.137C348.055 755.002 345.536 752.461 342.43 752.461C339.323 752.461 336.805 755.002 336.805 758.137C336.805 761.272 339.323 763.813 342.43 763.813Z" fill="white"/>
<path opacity="0.7" d="M328.93 253.717C331.001 253.717 332.68 252.022 332.68 249.933C332.68 247.843 331.001 246.148 328.93 246.148C326.859 246.148 325.18 247.843 325.18 249.933C325.18 252.022 326.859 253.717 328.93 253.717Z" fill="white"/>
<path opacity="0.7" d="M691.555 152.873C693.108 152.873 694.367 151.602 694.367 150.034C694.367 148.466 693.108 147.195 691.555 147.195C690.001 147.195 688.742 148.466 688.742 150.034C688.742 151.602 690.001 152.873 691.555 152.873Z" fill="#DF2171"/>
<path opacity="0.7" d="M1050.62 161.196C1053.72 161.196 1056.24 158.655 1056.24 155.52C1056.24 152.385 1053.72 149.844 1050.62 149.844C1047.51 149.844 1044.99 152.385 1044.99 155.52C1044.99 158.655 1047.51 161.196 1050.62 161.196Z" fill="white"/>
<path opacity="0.7" d="M520.18 472.256C521.733 472.256 522.992 470.985 522.992 469.417C522.992 467.849 521.733 466.578 520.18 466.578C518.626 466.578 517.367 467.849 517.367 469.417C517.367 470.985 518.626 472.256 520.18 472.256Z" fill="#DF2171"/>
<path opacity="0.7" d="M68.1172 157.226C70.706 157.226 72.8047 155.108 72.8047 152.496C72.8047 149.883 70.706 147.766 68.1172 147.766C65.5284 147.766 63.4297 149.883 63.4297 152.496C63.4297 155.108 65.5284 157.226 68.1172 157.226Z" fill="#DF2171"/>
</g>
</g>
<defs>
<linearGradient id="paint0_linear_5_619" x1="467.433" y1="-28.5356" x2="21.4725" y2="324.735" gradientUnits="userSpaceOnUse">
<stop stop-color="#00517A"/>
<stop offset="1" stop-color="#00233F"/>
</linearGradient>
<linearGradient id="paint1_linear_5_619" x1="1143.74" y1="882.227" x2="1439.03" y2="589.593" gradientUnits="userSpaceOnUse">
<stop stop-color="#00517A"/>
<stop offset="1" stop-color="#00233F"/>
</linearGradient>
<linearGradient id="paint2_linear_5_619" x1="1386.51" y1="545.459" x2="1418.1" y2="748.368" gradientUnits="userSpaceOnUse">
<stop stop-color="#005B7F"/>
<stop offset="1" stop-color="#00233F"/>
</linearGradient>
<linearGradient id="paint3_linear_5_619" x1="739.03" y1="821.064" x2="-46.859" y2="627.178" gradientUnits="userSpaceOnUse">
<stop stop-color="#005B7F"/>
<stop offset="1" stop-color="#00233F"/>
</linearGradient>
<linearGradient id="paint4_linear_5_619" x1="960.43" y1="272.726" x2="960.43" y2="25.2282" gradientUnits="userSpaceOnUse">
<stop stop-color="#005B7F"/>
<stop offset="1" stop-color="#00233F"/>
</linearGradient>
<linearGradient id="paint5_linear_5_619" x1="227.807" y1="120.246" x2="144.942" y2="237.313" gradientUnits="userSpaceOnUse">
<stop stop-color="#005B7F"/>
<stop offset="1" stop-color="#00233F"/>
</linearGradient>
<linearGradient id="paint6_linear_5_619" x1="982.438" y1="612.535" x2="1052.87" y2="698.04" gradientUnits="userSpaceOnUse">
<stop stop-color="#005B7F"/>
<stop offset="1" stop-color="#00233F"/>
</linearGradient>
<linearGradient id="paint7_linear_5_619" x1="149.377" y1="700.331" x2="106.574" y2="700.331" gradientUnits="userSpaceOnUse">
<stop stop-color="white"/>
<stop offset="1" stop-color="#00233F"/>
</linearGradient>
<linearGradient id="paint8_linear_5_619" x1="128.002" y1="1821.83" x2="85.1994" y2="1821.83" gradientUnits="userSpaceOnUse">
<stop stop-color="white"/>
<stop offset="1" stop-color="#00233F"/>
</linearGradient>
<linearGradient id="paint9_linear_5_619" x1="106.627" y1="1821.83" x2="63.8244" y2="1821.83" gradientUnits="userSpaceOnUse">
<stop stop-color="white"/>
<stop offset="1" stop-color="#00233F"/>
</linearGradient>
<linearGradient id="paint10_linear_5_619" x1="85.2519" y1="1821.83" x2="42.4494" y2="1821.83" gradientUnits="userSpaceOnUse">
<stop stop-color="white"/>
<stop offset="1" stop-color="#00233F"/>
</linearGradient>
<linearGradient id="paint11_linear_5_619" x1="63.8769" y1="1821.83" x2="21.0744" y2="1821.83" gradientUnits="userSpaceOnUse">
<stop stop-color="white"/>
<stop offset="1" stop-color="#00233F"/>
</linearGradient>
<linearGradient id="paint12_linear_5_619" x1="42.5019" y1="1821.83" x2="-0.300625" y2="1821.83" gradientUnits="userSpaceOnUse">
<stop stop-color="white"/>
<stop offset="1" stop-color="#00233F"/>
</linearGradient>
<linearGradient id="paint13_linear_5_619" x1="21.1269" y1="1821.83" x2="-21.6756" y2="1821.83" gradientUnits="userSpaceOnUse">
<stop stop-color="white"/>
<stop offset="1" stop-color="#00233F"/>
</linearGradient>
</defs>
</svg>
